# xmcd CD database file
#
# Track frame offsets:
#	150
#	19295
#	37500
#	60627
#	72335
#	89467
#	103922
#	127497
#	142505
#	164165
#	187580
#	211747
#	233917
#	258660
#	276240
#
# Disc length: 3935 seconds
#
# Revision: 0
# Processed by: cddbd v1.5PL3 Copyright (c) Steve Scherf et al.
# Submitted via: CDex 1.51
#
DISCID=d70f5d0f
DTITLE=Joe Kinemann Trio - Come Be Or Come Bop
DYEAR=1997
DGENRE=Jazz
TTITLE0=Come Be Or Come Bop
TTITLE1=Allegra
TTITLE2=All The Bees You Bop
TTITLE3=Brother King
TTITLE4=I Bop You
TTITLE5=Ballad For Billy
TTITLE6=Blues For Myself
TTITLE7=Zwiebop
TTITLE8=Lily Marleen
TTITLE9=Gringo Tango
TTITLE10=Dis Is Dizzy's
TTITLE11=Emily
TTITLE12=It's You Or No One
TTITLE13=Servus Sagen
TTITLE14=Desano
EXTD=YEAR: 1997
EXTT0=
EXTT1=
EXTT2=
EXTT3=
EXTT4=
EXTT5=
EXTT6=
EXTT7=
EXTT8=
EXTT9=
EXTT10=
EXTT11=
EXTT12=
EXTT13=
EXTT14=
PLAYORDER=
